<svg width="256" height="198" viewBox="0 0 256 198" fill="none" xmlns="http://www.w3.org/2000/svg">
<path d="M225.992 127.124C225.925 126.576 225.426 126.186 224.878 126.254L215.945 127.354C215.397 127.421 215.007 127.92 215.075 128.469C215.143 129.017 215.642 129.406 216.19 129.339L224.13 128.361L225.108 136.301C225.175 136.849 225.674 137.239 226.222 137.171C226.771 137.104 227.16 136.604 227.093 136.056L225.992 127.124ZM0.0104036 1.14387C0.137004 2.01467 0.264372 2.88192 0.392503 3.74564L2.37085 3.45215C2.24301 2.59036 2.11592 1.72503 1.9896 0.856129L0.0104036 1.14387ZM1.64585 11.9289C1.91178 13.6113 2.18071 15.2796 2.45259 16.9341L4.42612 16.6098C4.1549 14.9594 3.88662 13.295 3.62132 11.6166L1.64585 11.9289ZM3.7802 24.7691C4.06145 26.3794 4.3456 27.9759 4.63262 29.5587L6.60053 29.2019C6.31429 27.6233 6.03089 26.031 5.75037 24.425L3.7802 24.7691ZM6.13085 37.5642C6.45913 39.2642 6.79083 40.9476 7.12592 42.6147L9.0867 42.2206C8.75263 40.5585 8.4219 38.88 8.09457 37.185L6.13085 37.5642ZM8.76008 50.4916C9.10586 52.1067 9.45493 53.7057 9.80726 55.2886L11.7595 54.8541C11.4083 53.2765 11.0604 51.6828 10.7158 50.073L8.76008 50.4916ZM11.5942 63.064C11.9975 64.7637 12.4047 66.4439 12.8157 68.1048L14.7572 67.6243C14.3477 65.9697 13.942 64.2958 13.5402 62.6023L11.5942 63.064ZM14.818 75.9296C15.2412 77.5292 15.6681 79.1098 16.0987 80.6716L18.0267 80.14C17.598 78.585 17.1729 77.0111 16.7515 75.4181L14.818 75.9296ZM18.3002 88.3865C18.794 90.0583 19.2921 91.7071 19.7947 93.3331L21.7055 92.7426C21.2055 91.1247 20.7097 89.4839 20.2183 87.82L18.3002 88.3865ZM22.2397 100.964C22.7559 102.518 23.2762 104.05 23.8007 105.559L25.6899 104.902C25.1685 103.402 24.651 101.879 24.1377 100.334L22.2397 100.964ZM26.6054 113.319C27.2081 114.922 27.8157 116.498 28.4281 118.047L30.2881 117.312C29.6798 115.773 29.0762 114.208 28.4774 112.615L26.6054 113.319ZM31.4042 125.279C32.0971 126.896 32.7955 128.481 33.4994 130.034L35.3212 129.209C34.623 127.668 33.9301 126.095 33.2426 124.491L31.4042 125.279ZM36.9747 137.363C37.7074 138.839 38.4454 140.283 39.1886 141.697L40.9587 140.766C40.2229 139.367 39.492 137.936 38.7661 136.474L36.9747 137.363ZM43.1922 148.927C44.0466 150.391 44.9072 151.817 45.7736 153.206L47.4704 152.147C46.6147 150.776 45.7644 149.367 44.9197 147.919L43.1922 148.927ZM50.227 159.946C51.2197 161.363 52.2193 162.734 53.2253 164.061L54.8189 162.852C53.8284 161.546 52.8436 160.195 51.865 158.799L50.227 159.946ZM58.2769 170.291C59.4216 171.609 60.5736 172.873 61.7325 174.085L63.178 172.702C62.0416 171.514 60.911 170.273 59.7867 168.979L58.2769 170.291ZM67.5298 179.671C68.8325 180.823 70.1425 181.914 71.4591 182.946L72.693 181.372C71.408 180.365 70.1283 179.299 68.8546 178.173L67.5298 179.671ZM78.0899 187.62C79.5429 188.533 81.0023 189.38 82.467 190.163L83.41 188.4C81.9871 187.639 80.5682 186.815 79.1543 185.926L78.0899 187.62ZM89.8838 193.577C91.4725 194.194 93.0653 194.742 94.6609 195.223L95.2384 193.308C93.6922 192.842 92.1483 192.311 90.6079 191.713L89.8838 193.577ZM102.609 197.081C104.298 197.365 105.987 197.581 107.675 197.731L107.853 195.739C106.215 195.593 104.577 195.384 102.941 195.109L102.609 197.081ZM115.812 197.97C117.51 197.921 119.204 197.812 120.894 197.646L120.699 195.656C119.053 195.817 117.405 195.923 115.754 195.971L115.812 197.97ZM128.934 196.44C130.592 196.107 132.243 195.724 133.886 195.295L133.381 193.36C131.773 193.779 130.159 194.154 128.54 194.479L128.934 196.44ZM141.656 192.915C143.244 192.358 144.822 191.762 146.39 191.13L145.642 189.275C144.102 189.896 142.552 190.481 140.994 191.028L141.656 192.915ZM153.804 187.849C155.324 187.117 156.831 186.355 158.324 185.567L157.39 183.799C155.918 184.576 154.433 185.326 152.937 186.047L153.804 187.849ZM165.378 181.595C166.828 180.728 168.262 179.84 169.679 178.933L168.601 177.248C167.2 178.144 165.783 179.022 164.352 179.878L165.378 181.595ZM176.382 174.432C177.772 173.453 179.144 172.462 180.494 171.46L179.302 169.854C177.965 170.846 176.608 171.827 175.231 172.796L176.382 174.432ZM186.896 166.521C188.213 165.466 189.506 164.406 190.773 163.346L189.489 161.812C188.233 162.864 186.951 163.914 185.645 164.96L186.896 166.521ZM196.89 158.053C198.178 156.902 199.431 155.758 200.649 154.627L199.288 153.162C198.079 154.285 196.835 155.42 195.557 156.562L196.89 158.053ZM206.487 149.039C207.713 147.83 208.89 146.648 210.014 145.499L208.585 144.1C207.469 145.241 206.3 146.414 205.083 147.614L206.487 149.039ZM215.617 139.608C216.845 138.279 217.973 137.031 218.994 135.882L217.5 134.553C216.486 135.693 215.367 136.931 214.148 138.251L215.617 139.608ZM224.278 129.729C224.771 129.131 225.147 128.666 225.401 128.349C225.528 128.191 225.624 128.07 225.689 127.988C225.721 127.947 225.746 127.916 225.762 127.894C225.771 127.884 225.777 127.876 225.781 127.87C225.783 127.868 225.785 127.865 225.786 127.864C225.787 127.863 225.787 127.863 225.788 127.862C225.788 127.862 225.788 127.862 225.788 127.862C225.788 127.862 225.788 127.862 225.788 127.862C225.788 127.862 225.788 127.861 225.788 127.861C225.788 127.861 225.788 127.861 225 127.246C224.212 126.631 224.212 126.631 224.212 126.631C224.212 126.631 224.212 126.631 224.212 126.631C224.212 126.631 224.212 126.631 224.212 126.631C224.212 126.631 224.212 126.631 224.212 126.631C224.211 126.631 224.211 126.631 224.211 126.632C224.21 126.633 224.209 126.635 224.207 126.637C224.203 126.642 224.197 126.649 224.19 126.659C224.174 126.678 224.151 126.708 224.12 126.747C224.058 126.826 223.964 126.944 223.84 127.098C223.592 127.408 223.222 127.866 222.735 128.457L224.278 129.729Z" fill="white"/>
<path d="M203.472 181.168C203.589 181.307 203.648 181.451 203.648 181.6C203.648 181.664 203.643 181.733 203.632 181.808C203.632 181.872 203.627 181.931 203.616 181.984C203.584 182.101 203.515 182.213 203.408 182.32C203.323 182.384 203.205 182.432 203.056 182.464C202.981 182.485 202.907 182.501 202.832 182.512C202.757 182.523 202.677 182.539 202.592 182.56C202.517 182.571 202.443 182.576 202.368 182.576C202.293 182.576 202.213 182.576 202.128 182.576H201.312C201.12 182.587 200.928 182.592 200.736 182.592C200.555 182.592 200.373 182.592 200.192 182.592C200.203 182.923 200.208 183.28 200.208 183.664C200.208 184.037 200.203 184.475 200.192 184.976C200.192 185.477 200.187 186.059 200.176 186.72C200.176 187.381 200.176 188.149 200.176 189.024V190.24C200.176 190.347 200.181 190.427 200.192 190.48C200.192 190.523 200.192 190.565 200.192 190.608C200.192 190.64 200.187 190.683 200.176 190.736C200.155 190.832 200.139 190.944 200.128 191.072C200.128 191.125 200.123 191.179 200.112 191.232C200.101 191.275 200.085 191.323 200.064 191.376C200.021 191.419 200 191.451 200 191.472L199.952 191.568C199.899 191.675 199.797 191.776 199.648 191.872C199.413 191.989 199.152 192.016 198.864 191.952C198.683 191.931 198.544 191.883 198.448 191.808C198.352 191.712 198.283 191.616 198.24 191.52C198.176 191.403 198.139 191.291 198.128 191.184C198.096 191.088 198.08 190.987 198.08 190.88V182.656C198.016 182.656 197.883 182.656 197.68 182.656C197.477 182.656 197.259 182.656 197.024 182.656C196.8 182.645 196.587 182.635 196.384 182.624C196.181 182.613 196.043 182.603 195.968 182.592C195.904 182.581 195.803 182.565 195.664 182.544C195.536 182.523 195.429 182.501 195.344 182.48C195.12 182.416 194.944 182.315 194.816 182.176C194.699 182.037 194.64 181.883 194.64 181.712C194.64 181.648 194.64 181.584 194.64 181.52C194.64 181.456 194.651 181.397 194.672 181.344C194.704 181.216 194.789 181.109 194.928 181.024C194.971 180.992 195.035 180.955 195.12 180.912C195.216 180.859 195.307 180.821 195.392 180.8C195.52 180.757 195.68 180.725 195.872 180.704C195.957 180.693 196.043 180.688 196.128 180.688C196.213 180.688 196.304 180.688 196.4 180.688C196.773 180.688 197.125 180.688 197.456 180.688C197.797 180.688 198.155 180.683 198.528 180.672C199.147 180.661 199.76 180.661 200.368 180.672C200.987 180.672 201.6 180.683 202.208 180.704C202.347 180.715 202.48 180.731 202.608 180.752C202.736 180.773 202.864 180.811 202.992 180.864C203.088 180.896 203.179 180.939 203.264 180.992C203.349 181.035 203.419 181.093 203.472 181.168ZM211.161 188.848C211.172 189.061 211.177 189.285 211.177 189.52C211.177 189.744 211.172 189.952 211.161 190.144C211.151 190.432 211.135 190.699 211.113 190.944C211.092 191.179 211.049 191.381 210.985 191.552C210.921 191.712 210.82 191.835 210.681 191.92C210.553 191.995 210.372 192.016 210.137 191.984C209.892 191.952 209.716 191.835 209.609 191.632C209.503 191.429 209.428 191.2 209.385 190.944C209.353 190.677 209.343 190.411 209.353 190.144C209.364 189.877 209.364 189.669 209.353 189.52C209.343 189.285 209.332 189.019 209.321 188.72C209.321 188.411 209.289 188.123 209.225 187.856C209.172 187.579 209.076 187.344 208.937 187.152C208.799 186.96 208.591 186.859 208.313 186.848C207.961 186.827 207.689 186.853 207.497 186.928C207.316 187.003 207.183 187.115 207.097 187.264C207.012 187.403 206.959 187.573 206.937 187.776C206.927 187.979 206.905 188.197 206.873 188.432L206.857 189.056V190.224C206.857 190.416 206.852 190.619 206.841 190.832C206.841 191.035 206.809 191.221 206.745 191.392C206.681 191.563 206.58 191.707 206.441 191.824C206.313 191.941 206.121 192 205.865 192C205.545 192 205.305 191.899 205.145 191.696C204.996 191.483 204.921 191.221 204.921 190.912V181.712C204.921 181.648 204.921 181.589 204.921 181.536C204.932 181.472 204.943 181.408 204.953 181.344C204.975 181.28 204.991 181.221 205.001 181.168C205.012 181.104 205.028 181.045 205.049 180.992C205.081 180.885 205.135 180.805 205.209 180.752C205.263 180.699 205.316 180.656 205.369 180.624C205.423 180.592 205.481 180.571 205.545 180.56C205.599 180.549 205.657 180.544 205.721 180.544C205.785 180.533 205.849 180.528 205.913 180.528C206.073 180.528 206.228 180.576 206.377 180.672C206.441 180.715 206.5 180.763 206.553 180.816C206.607 180.859 206.649 180.923 206.681 181.008C206.767 181.211 206.809 181.403 206.809 181.584C206.82 181.637 206.825 181.717 206.825 181.824C206.836 181.92 206.841 182.021 206.841 182.128C206.841 182.235 206.841 182.341 206.841 182.448C206.852 182.544 206.857 182.619 206.857 182.672V182.752C206.868 183.093 206.873 183.44 206.873 183.792C206.873 184.144 206.873 184.501 206.873 184.864V185.136C207.321 184.987 207.791 184.917 208.281 184.928C208.772 184.928 209.209 185.024 209.593 185.216C209.988 185.419 210.287 185.648 210.489 185.904C210.703 186.16 210.857 186.443 210.953 186.752C211.049 187.061 211.103 187.392 211.113 187.744C211.135 188.096 211.151 188.464 211.161 188.848ZM214.325 185.264C214.645 185.104 214.981 184.992 215.333 184.928C215.685 184.853 216.031 184.837 216.373 184.88C216.725 184.912 217.061 185.003 217.381 185.152C217.701 185.291 217.999 185.493 218.277 185.76C218.554 186.037 218.767 186.341 218.917 186.672C219.066 187.003 219.173 187.371 219.237 187.776C219.279 188.053 219.349 188.309 219.445 188.544C219.541 188.779 219.642 189.013 219.749 189.248C219.866 189.483 219.973 189.717 220.069 189.952C220.175 190.187 220.261 190.432 220.325 190.688C220.378 190.933 220.356 191.173 220.26 191.408C220.175 191.632 219.994 191.771 219.717 191.824C219.557 191.856 219.402 191.845 219.253 191.792C219.114 191.728 218.986 191.643 218.869 191.536C218.751 191.419 218.645 191.296 218.549 191.168C218.463 191.029 218.383 190.901 218.309 190.784C218.063 191.104 217.797 191.355 217.509 191.536C217.221 191.707 216.874 191.819 216.469 191.872C216.127 191.915 215.802 191.925 215.493 191.904C215.183 191.883 214.853 191.824 214.501 191.728C214.042 191.611 213.663 191.408 213.365 191.12C213.077 190.821 212.853 190.48 212.693 190.096C212.543 189.701 212.463 189.28 212.453 188.832C212.442 188.384 212.495 187.941 212.613 187.504C212.762 186.928 212.986 186.459 213.285 186.096C213.583 185.733 213.93 185.456 214.325 185.264ZM214.725 187.136C214.575 187.285 214.458 187.461 214.373 187.664C214.287 187.867 214.234 188.08 214.213 188.304C214.202 188.528 214.223 188.752 214.277 188.976C214.33 189.2 214.415 189.397 214.533 189.568C214.639 189.717 214.821 189.845 215.077 189.952C215.333 190.048 215.599 190.107 215.877 190.128C216.197 190.149 216.474 190.064 216.709 189.872C216.954 189.68 217.135 189.44 217.253 189.152C217.381 188.853 217.439 188.539 217.429 188.208C217.418 187.867 217.327 187.557 217.157 187.28C217.029 187.077 216.858 186.928 216.645 186.832C216.442 186.736 216.223 186.688 215.989 186.688C215.754 186.677 215.519 186.715 215.285 186.8C215.061 186.875 214.874 186.987 214.725 187.136ZM226.597 184.944C226.682 185.147 226.688 185.371 226.613 185.616C226.549 185.861 226.426 186.021 226.245 186.096C226.149 186.139 226.021 186.176 225.861 186.208C225.701 186.229 225.525 186.251 225.333 186.272C225.152 186.293 224.97 186.309 224.789 186.32C224.608 186.331 224.453 186.336 224.325 186.336C224.336 186.656 224.346 186.987 224.357 187.328C224.368 187.659 224.378 187.984 224.389 188.304C224.4 188.624 224.405 188.933 224.405 189.232C224.405 189.52 224.4 189.781 224.389 190.016C224.389 190.176 224.389 190.363 224.389 190.576C224.389 190.779 224.373 190.976 224.341 191.168C224.32 191.36 224.282 191.531 224.229 191.68C224.176 191.819 224.096 191.909 223.989 191.952C223.658 192.091 223.354 192.128 223.077 192.064C222.81 192.011 222.618 191.899 222.501 191.728C222.416 191.589 222.352 191.429 222.309 191.248C222.266 191.056 222.234 190.864 222.213 190.672C222.202 190.469 222.197 190.277 222.197 190.096C222.208 189.904 222.213 189.739 222.213 189.6C222.224 189.152 222.229 188.645 222.229 188.08C222.24 187.504 222.245 186.928 222.245 186.352H222.005C221.877 186.352 221.712 186.352 221.509 186.352C221.317 186.341 221.12 186.325 220.917 186.304C220.725 186.272 220.544 186.235 220.373 186.192C220.202 186.139 220.08 186.064 220.005 185.968C219.888 185.829 219.813 185.68 219.781 185.52C219.76 185.36 219.77 185.211 219.813 185.072C219.866 184.923 219.946 184.795 220.053 184.688C220.16 184.571 220.282 184.496 220.421 184.464C220.613 184.411 220.885 184.384 221.237 184.384C221.589 184.373 221.92 184.373 222.229 184.384C222.218 184.277 222.213 184.176 222.213 184.08C222.213 183.973 222.208 183.872 222.197 183.776C222.186 183.648 222.181 183.488 222.181 183.296C222.181 183.093 222.192 182.896 222.213 182.704C222.245 182.501 222.293 182.315 222.357 182.144C222.421 181.963 222.512 181.824 222.629 181.728C222.789 181.6 222.949 181.531 223.109 181.52C223.28 181.499 223.434 181.52 223.573 181.584C223.722 181.648 223.845 181.744 223.941 181.872C224.048 181.989 224.122 182.123 224.165 182.272C224.197 182.4 224.224 182.555 224.245 182.736C224.266 182.907 224.277 183.088 224.277 183.28C224.288 183.472 224.293 183.664 224.293 183.856C224.293 184.048 224.293 184.224 224.293 184.384H224.453C224.613 184.384 224.8 184.379 225.013 184.368C225.226 184.357 225.434 184.363 225.637 184.384C225.85 184.405 226.042 184.459 226.213 184.544C226.384 184.619 226.512 184.752 226.597 184.944ZM242.493 190.848C242.483 190.976 242.467 191.109 242.445 191.248C242.424 191.387 242.387 191.515 242.333 191.632C242.28 191.76 242.211 191.856 242.125 191.92C242.008 192.027 241.869 192.085 241.709 192.096C241.56 192.149 241.416 192.165 241.277 192.144C241.139 192.123 241.011 192.085 240.893 192.032C240.744 191.936 240.632 191.824 240.557 191.696C240.493 191.557 240.445 191.413 240.413 191.264C240.381 191.115 240.365 190.96 240.365 190.8C240.365 190.64 240.365 190.491 240.365 190.352V189.104L240.349 186.656C240.349 186.485 240.349 186.352 240.349 186.256C240.349 186.16 240.349 186.075 240.349 186C240.349 185.915 240.344 185.824 240.333 185.728C240.333 185.621 240.333 185.472 240.333 185.28C240.333 185.248 240.333 185.195 240.333 185.12C240.344 185.035 240.339 184.816 240.317 184.464C239.901 185.157 239.555 185.717 239.277 186.144C239.011 186.56 238.781 186.885 238.589 187.12C238.408 187.344 238.248 187.499 238.109 187.584C237.971 187.659 237.827 187.701 237.677 187.712C237.592 187.723 237.507 187.707 237.421 187.664C237.336 187.621 237.251 187.568 237.165 187.504C237.091 187.44 237.016 187.376 236.941 187.312C236.877 187.237 236.824 187.168 236.781 187.104C236.525 186.784 236.237 186.4 235.917 185.952C235.597 185.504 235.267 184.96 234.925 184.32C234.925 184.331 234.92 184.507 234.909 184.848C234.909 185.189 234.909 185.616 234.909 186.128C234.909 186.629 234.904 187.173 234.893 187.76C234.893 188.336 234.888 188.875 234.877 189.376C234.877 189.877 234.872 190.299 234.861 190.64C234.851 190.971 234.84 191.136 234.829 191.136C234.829 191.317 234.787 191.488 234.701 191.648C234.616 191.797 234.499 191.92 234.349 192.016C234.211 192.112 234.045 192.165 233.853 192.176C233.661 192.187 233.453 192.133 233.229 192.016C233.091 191.931 232.984 191.808 232.909 191.648C232.845 191.488 232.803 191.339 232.781 191.2C232.771 191.051 232.76 190.907 232.749 190.768C232.749 190.629 232.749 190.485 232.749 190.336L232.765 189.088L232.781 186.624V184.48C232.781 183.552 232.813 182.64 232.877 181.744C232.877 181.627 232.888 181.52 232.909 181.424C232.941 181.317 232.979 181.216 233.021 181.12C233.107 180.949 233.219 180.821 233.357 180.736C233.517 180.64 233.688 180.592 233.869 180.592C233.944 180.592 234.013 180.597 234.077 180.608C234.152 180.608 234.221 180.613 234.285 180.624C234.499 180.667 234.68 180.795 234.829 181.008C234.989 181.211 235.139 181.387 235.277 181.536C235.363 181.632 235.453 181.749 235.549 181.888C235.645 182.027 235.741 182.171 235.837 182.32C235.933 182.469 236.024 182.613 236.109 182.752C236.195 182.891 236.269 183.013 236.333 183.12C236.611 183.568 236.856 183.979 237.069 184.352C237.293 184.725 237.501 185.045 237.693 185.312C237.725 185.28 237.763 185.237 237.805 185.184C237.848 185.12 237.891 185.056 237.933 184.992C237.987 184.917 238.029 184.848 238.061 184.784C238.104 184.72 238.136 184.667 238.157 184.624C238.264 184.453 238.371 184.288 238.477 184.128C238.584 183.957 238.696 183.781 238.813 183.6C238.941 183.408 239.069 183.2 239.197 182.976C239.336 182.752 239.496 182.496 239.677 182.208C239.752 182.08 239.848 181.925 239.965 181.744C240.083 181.563 240.216 181.387 240.365 181.216C240.515 181.045 240.669 180.901 240.829 180.784C241 180.656 241.171 180.592 241.341 180.592C241.427 180.592 241.501 180.597 241.565 180.608C241.629 180.608 241.693 180.613 241.757 180.624C241.885 180.635 242.008 180.693 242.125 180.8C242.211 180.885 242.275 180.976 242.317 181.072C242.36 181.211 242.387 181.328 242.397 181.424C242.408 181.499 242.413 181.568 242.413 181.632C242.424 181.696 242.429 181.76 242.429 181.824C242.429 182.421 242.435 183.013 242.445 183.6C242.456 184.187 242.461 184.779 242.461 185.376C242.461 186.101 242.461 186.848 242.461 187.616C242.472 188.384 242.477 189.131 242.477 189.856C242.477 190.005 242.483 190.165 242.493 190.336C242.504 190.507 242.504 190.677 242.493 190.848ZM249.332 189.808C249.46 189.776 249.588 189.755 249.716 189.744C249.855 189.733 249.978 189.749 250.084 189.792C250.202 189.835 250.298 189.909 250.372 190.016C250.447 190.112 250.484 190.251 250.484 190.432C250.484 190.56 250.452 190.683 250.388 190.8C250.324 190.917 250.244 191.024 250.148 191.12C250.052 191.216 249.946 191.301 249.828 191.376C249.711 191.44 249.599 191.493 249.492 191.536C249.183 191.675 248.826 191.781 248.42 191.856C248.026 191.931 247.615 191.957 247.188 191.936C246.612 191.915 246.058 191.803 245.524 191.6C245.002 191.387 244.591 191.04 244.292 190.56C244.015 190.091 243.85 189.568 243.796 188.992C243.743 188.416 243.77 187.872 243.876 187.36C243.994 186.741 244.191 186.24 244.468 185.856C244.756 185.461 245.098 185.147 245.492 184.912C245.972 184.635 246.511 184.491 247.108 184.48C247.706 184.469 248.276 184.587 248.82 184.832C249.183 184.992 249.508 185.211 249.796 185.488C250.084 185.755 250.303 186.08 250.452 186.464C250.495 186.56 250.527 186.677 250.548 186.816C250.58 186.955 250.602 187.104 250.612 187.264C250.623 187.413 250.623 187.563 250.612 187.712C250.602 187.861 250.575 187.995 250.532 188.112C250.468 188.304 250.388 188.453 250.292 188.56C250.196 188.667 250.074 188.747 249.924 188.8C249.775 188.853 249.594 188.891 249.38 188.912C249.178 188.923 248.932 188.933 248.644 188.944C248.388 188.955 248.148 188.96 247.924 188.96C247.7 188.96 247.471 188.96 247.236 188.96C247.002 188.949 246.756 188.944 246.5 188.944C246.255 188.933 245.978 188.923 245.668 188.912C245.636 189.125 245.663 189.312 245.748 189.472C245.844 189.621 245.972 189.749 246.132 189.856C246.292 189.952 246.474 190.027 246.676 190.08C246.879 190.133 247.076 190.165 247.268 190.176C247.631 190.197 247.978 190.171 248.308 190.096C248.639 190.011 248.98 189.915 249.332 189.808ZM248.644 186.704C248.442 186.469 248.228 186.299 248.004 186.192C247.834 186.117 247.652 186.085 247.46 186.096C247.279 186.096 247.103 186.123 246.932 186.176C246.623 186.251 246.362 186.411 246.148 186.656C246.127 186.677 246.09 186.731 246.036 186.816C245.983 186.891 245.93 186.971 245.876 187.056C245.834 187.141 245.802 187.221 245.78 187.296C245.759 187.371 245.77 187.408 245.812 187.408H248.948C248.938 187.259 248.911 187.136 248.868 187.04C248.826 186.933 248.751 186.821 248.644 186.704ZM252.626 180.208C252.711 180.069 252.828 179.968 252.978 179.904C253.127 179.84 253.271 179.808 253.41 179.808C253.527 179.808 253.639 179.813 253.746 179.824C253.863 179.824 253.975 179.835 254.082 179.856C254.306 179.92 254.466 180.064 254.562 180.288C254.658 180.501 254.716 180.752 254.738 181.04C254.77 181.317 254.775 181.595 254.754 181.872C254.743 182.149 254.738 182.373 254.738 182.544V187.264C254.738 187.477 254.738 187.691 254.738 187.904C254.738 188.117 254.7 188.32 254.626 188.512C254.551 188.693 254.412 188.827 254.21 188.912C254.007 188.997 253.794 189.04 253.57 189.04C253.346 189.029 253.132 188.981 252.93 188.896C252.727 188.8 252.588 188.667 252.514 188.496C252.482 188.4 252.455 188.283 252.434 188.144C252.423 187.995 252.412 187.861 252.402 187.744C252.391 187.563 252.386 187.376 252.386 187.184C252.396 186.981 252.402 186.779 252.402 186.576V181.216C252.402 181.088 252.418 180.923 252.45 180.72C252.482 180.517 252.54 180.347 252.626 180.208ZM254.466 190.496C254.498 190.549 254.524 190.603 254.546 190.656C254.578 190.699 254.604 190.752 254.626 190.816C254.658 190.933 254.679 191.056 254.69 191.184C254.7 191.312 254.69 191.44 254.658 191.568C254.626 191.685 254.572 191.797 254.498 191.904C254.423 192.011 254.322 192.091 254.194 192.144C254.076 192.197 253.938 192.229 253.778 192.24C253.618 192.251 253.463 192.24 253.314 192.208C253.164 192.176 253.026 192.117 252.898 192.032C252.77 191.947 252.679 191.835 252.626 191.696C252.572 191.547 252.54 191.376 252.53 191.184C252.53 190.981 252.556 190.805 252.61 190.656C252.674 190.496 252.775 190.389 252.914 190.336C253.052 190.272 253.202 190.24 253.362 190.24C253.564 190.229 253.762 190.235 253.954 190.256C254.156 190.277 254.327 190.357 254.466 190.496Z" fill="white"/>
</svg>
